<?xml version="1.0" encoding="utf-8"?>
<!-- Generator: Adobe Illustrator 15.1.0, SVG Export Plug-In . SVG Version: 6.00 Build 0)  -->
<!DOCTYPE svg PUBLIC "-//W3C//DTD SVG 1.1//EN" "http://www.w3.org/Graphics/SVG/1.1/DTD/svg11.dtd">
<svg version="1.1" id="Layer_1" xmlns="http://www.w3.org/2000/svg" xmlns:xlink="http://www.w3.org/1999/xlink" x="0px" y="0px"
	 width="206.418px" height="362.479px" viewBox="0 0 206.418 362.479" enable-background="new 0 0 206.418 362.479"
	 xml:space="preserve">
<g>
	<path fill="#515151" d="M115.529,39.284c0-9.521-2.399-17.244-7.198-23.016c0.826,2.772,1.351,5.473,1.576,8.246
		c-1.649,18.143-6.523,28.039-14.62,29.612c0.524,0.676,1.125,1.426,1.725,2.1c2.024,2.549,3.897,5.248,5.547,8.172
		c1.2-1.349,2.623-2.924,4.349-4.647C112.679,52.703,115.529,45.881,115.529,39.284L115.529,39.284z"/>
	<path fill="#515151" d="M17.318,24.665c0.074-0.525,0.225-0.975,0.375-1.425c-2.25,2.773-3.974,6.747-5.248,11.995
		c-2.024,8.247-2.999,14.095-2.999,17.543c0,11.695,6.223,20.392,18.742,26.165c2.25,1.049,6.523,2.623,12.896,4.797
		c1.724,0.601,3.073,1.125,4.049,1.649c-0.076-0.224-0.076-0.524-0.076-0.824c0-4.873,0-7.347,0-7.422
		c-0.45-3.974-0.525-7.872-0.225-11.545c-0.899,0-1.874,0-2.998,0c-11.921,0-19.868-5.173-23.766-15.519
		c-1.2-3.225-1.95-6.823-2.25-10.722c0-3.224,0-4.873,0-4.948C15.819,32.537,16.344,29.238,17.318,24.665L17.318,24.665z"/>
	<path fill="#FFFFFF" d="M52.255,90.938c-0.076,0.75-0.076,1.5-0.076,2.324c0,5.173,1.649,10.196,4.948,14.994
		c5.473,8.021,14.32,12.07,26.689,12.07c10.571,0,17.394-4.424,20.467-13.195c0.975-2.772,1.575-5.848,1.648-9.221
		c-0.073-2.849-0.149-4.348-0.149-4.423c0.149-4.648-0.75-9.071-2.624-13.344c-0.375-0.976-0.825-1.875-1.349-2.699
		c-2.324,2.024-6.447,4.273-12.52,6.822c-10.72,4.573-21.067,6.822-30.963,6.822C56.003,91.088,53.979,91.014,52.255,90.938
		L52.255,90.938z"/>
	<path fill="#FF9900" d="M51.055,85.09c0.524-0.076,1.125-0.225,1.799-0.299c12.521-1.649,22.191-3.225,29.089-4.648
		c1.125-0.226,6.747-2.849,16.943-7.872c-0.225-0.226-0.375-0.449-0.45-0.675c-0.075-0.975-0.149-1.5-0.149-1.574
		c0-0.225,0.149-0.525,0.375-0.9c-1.425-3.073-2.699-5.473-3.674-7.046C88.314,51.203,78.793,45.73,66.349,45.73
		c-8.696,0-13.794,7.048-15.294,21.143C50.38,72.945,50.38,79.018,51.055,85.09L51.055,85.09z M69.722,50.379
		c0-0.899,0.525-1.35,1.5-1.35c2.774,0,7.197,7.647,13.345,22.866c0,1.125-0.6,1.725-1.725,1.725c-0.824,0-1.949-1.575-3.224-4.648
		c-1.35-3.599-2.249-5.922-2.774-7.047c-0.899-2.024-2.399-4.573-4.423-7.497C70.622,51.879,69.722,50.529,69.722,50.379
		L69.722,50.379z M61.101,51.729c0-1.05,0.6-1.574,1.875-1.574c2.399,0,7.197,8.396,14.469,25.189c0,1.575-0.45,2.399-1.35,2.399
		c-1.274,0-2.699-1.799-4.123-5.397c-1.35-4.124-2.324-6.747-2.85-7.722C63.8,56.377,61.101,52.104,61.101,51.729L61.101,51.729z"/>
	<path fill="#CC0000" d="M83.816,126.323c-0.375,0-0.75,0-1.125,0c0.375,1.5,0.451,3.524,0.225,6.073
		c-3.374,32.987-6.747,53.454-10.121,61.4c0.675,0.676,1.424,1.575,2.1,2.85c1.424,2.623,2.773,3.897,4.048,3.897
		c0.45,0,2.175-1.574,5.248-4.647c2.174-2.25,3.748-3.674,4.723-4.348c-0.525-2.399-0.9-5.924-1.125-10.572
		c0-9.521,0-14.394,0-14.469c-0.226-7.797-0.226-15.369,0-22.642c0.225-8.396,0.75-14.318,1.5-17.842
		C87.564,126.249,85.691,126.323,83.816,126.323L83.816,126.323z"/>
	<path fill="#FFFFFF" d="M74.295,157.811c1.725-16.268,3.074-26.839,4.048-31.711c-5.698-0.525-10.646-1.8-14.844-3.975
		c-2.25,0.676-5.248,1.5-8.921,2.475c-10.271,2.699-16.568,5.248-18.893,7.647c-4.348,4.348-7.122,9.221-8.321,14.619
		c-1.274,5.323-2.624,10.646-4.048,15.969c-0.75,3.522-1.125,7.946-1.125,13.269c0,7.573,2.249,17.693,6.747,30.213
		c0.524,1.5,1.125,2.998,1.649,4.424c1.574,4.271,3.224,8.245,4.798,11.919c2.174,0.075,3.074,1.2,2.549,3.448
		c0,0.676-0.75,2.176-2.25,4.499c0,1.799,0.899,2.924,2.624,3.299c1.274,0,2.024,0.524,2.399,1.649
		c0.15,0.375,0.225,0.75,0.225,1.274c0,0.299,0,0.599-0.075,0.824c-0.076,0.075-0.076,0.225-0.076,0.375
		c-0.375,2.698,0.076,4.048,1.274,4.048c1.274,0,3-0.45,5.174-1.424c0.899,0,1.574,0.3,2.024,0.824
		c1.274,0.225,2.024,1.575,2.25,4.049c0.3,2.698,1.124,4.048,2.549,4.048l3.523-0.299c0.15,0.674,0.225,0.449,0.225-0.825
		c-2.474-6.073-3.748-10.495-3.748-13.12c0-2.399,0.449-5.023,1.349-7.872c1.274-4.198,3.074-6.298,5.548-6.298
		c0.674,0,1.274,0.075,1.725,0.301c0.149-0.45,0.524-0.75,1.124-0.899c0.075-1.274,0.15-1.95,0.15-2.024
		c-0.076-0.301-0.226-0.825-0.375-1.575c-3.975,0.526-6.598,0.825-7.872,0.825c-0.301,0-0.6,0-0.825,0c-0.225,0-0.449,0-0.674,0
		c-3.149,0-6.073-6.072-8.847-18.217c-2.174-12.222-3.299-18.369-3.299-18.443c0-3.824,0.525-8.922,1.5-15.444
		c1.5-9.521,3.448-14.245,5.923-14.245c2.399,0,3.299,1.5,2.699,4.573c0,0.601-0.75,3.674-2.25,9.221
		c-1.499,5.548-2.248,10.946-2.248,16.119c0,5.624,1.649,12.67,4.873,20.991c1.5,3.898,2.699,6.898,3.524,8.997
		c1.424-0.449,3.299-0.675,5.622-0.675c5.474,0,8.321,2.625,8.472,7.797c0,0.676-0.075,1.274-0.225,1.799
		c0.524-0.75,1.274-1.574,2.174-2.549c2.924-2.998,5.848-4.498,8.847-4.498c1.35,0,2.398,0.15,3.074,0.451
		c0.225-0.375,0.524-0.601,0.899-0.75c0.225-0.076,1.274-0.301,3.073-0.526c2.25-2.099,8.247-3.147,17.917-3.224
		c0.524-4.198,2.174-14.692,5.098-31.487c1.427-8.396,2.701-15.144,3.75-20.241c0-0.525,0.073-0.975,0.299-1.35
		c1.5-7.122,2.549-10.646,3.226-10.646c2.622,0,3.521,1.799,2.848,5.397c0,0.45-0.149,1.725-0.375,3.898
		c7.421,2.099,21.442,14.544,42.208,37.26c0.076-0.075,0.226-0.075,0.299-0.075c2.924,0,4.125,1.35,3.601,4.049
		c0,1.799-1.274,4.948-3.75,9.371v5.623l0.375,0.375c0.226-0.226,1.649-2.699,4.274-7.497c2.174-3.974,4.198-5.922,5.997-5.922
		c1.351,0,2.25,0.524,2.625,1.573c4.271,0.601,8.695,4.573,13.345,11.846c0.524-0.226,0.75-0.675,0.75-1.425
		c0-0.975-2.476-5.023-7.497-12.295c0-1.8,1.198-2.699,3.521-2.699c2.701,0,4.948,1.875,6.674,5.623
		c0.073-0.15,0.226-0.3,0.299-0.375c0.524-0.375,0.75-0.899,0.75-1.574c0-1.573-1.351-3.299-4.122-5.098
		c-2.774-1.725-4.125-2.999-4.125-3.749c0-2.024,1.274-3.073,3.899-3.073c2.174,0,3.973,0.6,5.546,1.799
		c0.976-0.524,2.101-1.123,3.299-1.873c-1.274-0.601-7.271-2.399-17.991-5.474c-4.872-1.425-8.247-2.699-10.122-3.898
		c-0.375,0.074-0.823,0.074-1.348,0.074c-12.372-14.918-20.769-24.964-25.266-30.063c-5.473-6.222-11.32-11.32-17.47-15.293
		c-4.723-3.075-10.793-6.073-18.217-8.997c-2.473-0.975-4.423-1.725-5.922-2.324c-2.399,2.024-5.248,3.449-8.472,4.423
		c0.675,2.175,0.9,5.698,0.749,10.496c-0.149,4.948-0.599,12.22-1.274,21.892c0,8.696,0.525,20.392,1.5,35.161
		c0,1.574-0.899,2.399-2.624,2.623c-1.274,2.1-5.922,6.598-14.094,13.57c-0.899,0-3.074-2.175-6.448-6.448
		c-2.025-2.549-3.449-4.348-4.198-5.397c-0.226-0.075-0.375-0.149-0.601-0.225c-0.074-0.226-0.074-0.525-0.074-0.75
		c-0.075-0.074-0.075-0.15-0.075-0.224c0-0.226,0-0.375,0.075-0.526c-0.075-0.524-0.075-1.199-0.075-1.873
		C70.922,175.129,73.396,163.284,74.295,157.811L74.295,157.811z"/>
	<path fill="#EBEBEB" d="M194.921,260.745c-0.149-0.524-0.299-0.975-0.375-1.35c-0.223-0.599-0.448-1.125-0.747-1.574
		c-0.677-0.975-1.649-1.5-2.924-1.5c-0.527,0-0.976,0.076-1.277,0.3l-76.919-21.59c-0.223,0.224-0.448,0.375-0.674,0.524
		c-0.823-0.226-1.573-0.45-2.323-0.676c-0.076-0.224-0.226-0.524-0.302-0.75l-22.489-6.297l-5.698-1.649l-1.425-0.45
		c-0.074,0-0.074,0-0.149,0c-1.725,0.075-2.624,0.676-2.624,1.875c0,0.45,0.375,0.899,1.05,1.35
		c-1.725,3.674-2.773,6.747-3.224,9.372c-0.226,1.123-0.375,3.297-0.601,6.372l42.435,20.842c0.299-0.076,0.598-0.151,0.899-0.151
		c0.524,0,1.049,0.45,1.649,1.426l58.852,28.863l27.363-6.372L194.921,260.745L194.921,260.745z"/>
	<path fill="#515151" d="M108.557,213.665c-0.299-1.426-1.274-2.101-3-2.176c-0.448-0.599-1.423-0.899-2.998-0.899l-1.199,0.075
		c-1.424,0.074-4.948,0.524-10.57,1.351c-1.05,0.149-1.95,0.299-2.774,0.373c-1.799,0.226-2.849,0.45-3.073,0.526
		c-0.375,0.149-0.675,0.375-0.899,0.75c-0.15,0.224-0.226,0.448-0.301,0.823c-0.75,0.375-1.124,0.976-1.124,1.8
		c0,0.524,0.3,1.124,0.825,1.725c0,0.074,0,0.149,0,0.224c-0.225,0.375-0.451,0.825-0.674,1.35c-0.375,0.525-0.975,1.05-1.8,1.576
		c-1.649,1.123-2.474,2.022-2.474,2.772c0,0.524,0.375,1.051,1.2,1.575c0.374,0.224,0.899,0.449,1.499,0.674l5.698,1.649
		c1.125,0.226,2.399,0.524,3.749,0.75c1.873,0.449,4.572,1.199,8.171,2.174c3.599,0.375,6.597,1.199,8.92,2.474
		c0.527,0,0.902,0,1.274-0.074c1.277-0.299,1.951-1.125,1.951-2.399c-0.524-2.1-0.75-3.148-0.75-3.223
		c0.375-1.351,0.524-2.25,0.524-2.774c0-0.825-0.524-3.073-1.649-6.747C108.932,215.988,108.782,214.488,108.557,213.665
		L108.557,213.665z M93.263,217.037c0.375-0.149,0.899-0.299,1.424-0.524c2.924-0.75,6.148-1.125,9.822-1.125l0.226,0.75
		c-2.7,0.601-6.448,0.899-11.171,0.899C93.488,217.037,93.338,217.037,93.263,217.037L93.263,217.037z"/>
	<path fill="#FFFFFF" d="M90.639,228.583c-1.349-0.226-2.624-0.524-3.748-0.75l22.489,6.299c-0.149-0.301-0.299-0.601-0.375-0.976
		c-0.372,0.074-0.747,0.074-1.274,0.074c-2.323-1.274-5.321-2.099-8.92-2.474C95.212,229.782,92.513,229.032,90.639,228.583
		L90.639,228.583z"/>
	<path fill="#515151" d="M120.776,302.804c-3.973-18.967-5.997-29.988-5.997-32.987c0-2.474,0.601-3.897,1.875-4.272L74.22,244.702
		c-0.149,1.724-0.299,3.748-0.449,6.071c-0.825,5.624-2.624,8.396-5.398,8.396c-1.573,0-2.848-2.998-3.897-8.921
		c-0.524-4.198-0.899-6.897-0.975-8.172c-0.225-0.149-0.45-0.375-0.524-0.6c0-0.15,0-0.3,0-0.375
		c-0.525-0.074-0.975-0.224-1.35-0.375c1.2,2.924,1.8,5.548,1.8,7.872c0,1.95-0.225,3.299-0.6,3.975
		c-0.975,1.799-3.225,2.698-6.747,2.698c-4.573,0-7.647-1.5-9.222-4.424c-0.375-1.424-0.601-2.549-0.75-3.374
		c-0.6,0.151-1.274,0.226-2.024,0.301c0.075,0.524,0,1.199-0.149,1.949c0,5.322-2.999,21.891-8.997,49.78
		c-0.149,1.049-1.274,11.095-3.299,30.138c-1.349,12.37-2.698,18.592-4.048,18.592h-0.15c-0.224,1.125-1.349,1.949-3.298,2.55
		c-3.974,1.274-6.897,2.475-8.697,3.448v1.499c0.674,0.525,3.298,0.75,8.022,0.75c6.972,0,14.694-0.899,23.091-2.773
		c3.748-0.824,6.747-1.5,8.996-1.949c0.075-1.125,0.6-1.725,1.499-1.95c0.076-0.074,1.274-0.074,3.524-0.074
		c4.873,0,7.872-5.848,9.146-17.543c0.45-13.869,0.825-23.016,1.2-27.439c2.099-29.238,5.397-43.857,9.896-43.857
		c1.425,0,2.399,0.525,2.774,1.574c4.573,0.975,6.822,14.845,6.822,41.46c0,6.671,1.649,19.565,4.873,38.833
		c8.472,0.675,14.995,0.976,19.642,0.976c8.695,0,14.32-0.375,16.869-1.2c1.5-0.449,3.149-1.199,4.872-2.248
		c-1.049-0.901-3.073-1.875-5.997-3c-0.899-0.299-1.573-0.674-2.101-1.049c-0.223,0-0.375,0-0.524,0
		c-2.622,0-4.424-4.274-5.247-12.896C122.2,313.073,121.526,306.177,120.776,302.804L120.776,302.804z"/>
	<path fill="#FFFFFF" d="M81.192,226.184c-0.6-0.225-1.125-0.45-1.499-0.674c-0.075,0.074-0.075,0.149-0.075,0.224
		c0.075,0,0.075,0,0.149,0L81.192,226.184L81.192,226.184z"/>
	<path fill="#CFA575" d="M64.774,223.336l-0.75-0.451c0.075,0.375,0.149,0.75,0.149,1.199c0,0.075-1.498,3.6-4.498,10.646
		c0,0.45,0.15,1.124,0.525,2.1c0.075,0,0.225,0,0.3,0c1.124,0,2.175,0.226,3.074,0.674c0.449-1.725,1.124-3.898,2.024-6.671
		c0.899-2.7,1.724-4.799,2.473-6.299C67.023,224.31,65.899,223.935,64.774,223.336L64.774,223.336z"/>
	<path fill="#FFE6AD" d="M74.82,219.361c-1.199,1.725-2.174,2.999-2.924,3.898c0,0.226,0,0.451-0.075,0.675
		c0,1.051-1.35,4.273-3.974,9.671c-0.674,2.549-1.199,4.573-1.649,5.999c0,0,0,0,0,0.074c0,0.374-0.074,0.674-0.149,0.899
		c0.6,0.899,1.049,2.773,1.274,5.697c0.524,6.147,0.825,9.446,0.899,9.821l0.225,0.075c1.274-7.421,2.699-14.545,4.423-21.366
		c2.324-9.222,4.647-15.293,6.973-18.144C77.969,217.037,76.319,217.938,74.82,219.361L74.82,219.361z"/>
	<path fill="#CFA575" d="M22.642,207.666l-10.796-4.272c-0.075,3.748-0.75,6.521-1.875,8.321l16.494,7.572
		C25.19,216.363,23.916,212.464,22.642,207.666L22.642,207.666z"/>
	<path fill="#FFE6AD" d="M3.224,203.543c-0.3,1.125-0.45,2.324-0.375,3.448c0,2.774,0.674,4.198,2.099,4.198
		c2.849,0,4.198-2.924,4.048-8.847c0.15-0.748,0.15-1.274,0-1.498c-0.149-0.375-0.899-0.601-2.248-0.601
		C5.023,200.244,3.898,201.369,3.224,203.543L3.224,203.543z"/>
	<path d="M121.151,39.434c0.524-6.522-0.076-12.896-1.875-19.192c-3.223-11.47-9.896-17.618-19.941-18.592
		C97.61,0.524,95.662,0,93.563,0c-1.875,0-2.774,1.049-2.774,3.073c0,0.226,2.249,2.774,6.747,7.571
		c4.498,4.874,6.747,9.521,6.747,14.095c0,6.223-4.573,14.545-13.644,24.815c-7.423-6.522-15.67-9.821-24.816-9.821
		c-10.57,0-17.168,5.997-19.791,17.993c-0.226,0.824-0.375,1.724-0.525,2.549c-4.648-0.75-7.647-1.35-9.071-1.799
		c-9.971-3.225-14.994-11.32-14.994-24.441c1.5-6.672,2.249-10.795,2.249-12.37c0.226-1.125,0.226-2.024,0.15-2.699
		c0.674-0.225,1.424-0.375,2.1-0.3c0-1.949-1.426-2.924-4.35-2.924c-6.597,0-11.544,5.998-14.769,18.068
		c-1.649,6.071-2.623,12.444-2.998,19.117c0,6.147,2.099,12.745,6.372,19.717c7.122,11.771,18.442,17.692,33.886,17.692
		c0.75,0,1.35-0.149,1.8-0.449c0.075,0,0.075,0,0.15,0.074c0.074,0.075,0.149,0.075,0.225,0.15c0.075,0.225,0.225,0.375,0.374,0.525
		h19.418c7.497-0.825,15.219-3,23.241-6.373c6.073-2.549,10.196-4.798,12.52-6.822c0.525,0.824,0.975,1.724,1.35,2.698
		c1.499,3.375,2.397,6.823,2.623,10.497h5.698c-0.076-4.573-0.976-9.072-2.698-13.42c-0.601-1.5-1.274-2.848-2.024-4.123
		c-0.076-0.301-0.226-0.676-0.375-1.051c4.424-2.099,8.021-7.122,10.869-15.144C119.877,49.629,121.151,43.857,121.151,39.434
		L121.151,39.434z M109.907,24.515c-0.226-2.773-0.75-5.474-1.576-8.246c4.799,5.772,7.198,13.494,7.198,23.016
		c0,6.597-2.851,13.419-8.622,20.467c-1.726,1.724-3.148,3.299-4.349,4.647c-1.649-2.924-3.522-5.623-5.547-8.171
		c-0.6-0.674-1.2-1.424-1.725-2.1C103.384,52.553,108.258,42.657,109.907,24.515L109.907,24.515z M51.055,85.09
		c-0.675-6.073-0.675-12.145,0-18.217c1.5-14.095,6.598-21.143,15.294-21.143c12.444,0,21.966,5.473,28.639,16.344
		c0.975,1.574,2.249,3.973,3.674,7.046c-0.226,0.375-0.375,0.676-0.375,0.9c0,0.075,0.074,0.6,0.149,1.574
		c0.075,0.226,0.226,0.449,0.45,0.675c-10.196,5.023-15.819,7.646-16.943,7.872c-6.897,1.424-16.568,2.999-29.089,4.648
		C52.179,84.865,51.579,85.015,51.055,85.09L51.055,85.09z M17.318,24.665c-0.975,4.573-1.5,7.872-1.5,9.745
		c0,0.075,0,1.725,0,4.948c0.299,3.898,1.049,7.497,2.25,10.722c3.897,10.345,11.845,15.519,23.766,15.519c1.124,0,2.099,0,2.998,0
		c-0.3,3.673-0.225,7.571,0.225,11.545c0,0.075,0,2.549,0,7.422c0,0.3,0,0.601,0.076,0.824c-0.976-0.524-2.325-1.049-4.049-1.649
		c-6.372-2.174-10.646-3.748-12.896-4.797C15.669,73.17,9.446,64.474,9.446,52.778c0-3.448,0.975-9.296,2.999-17.543
		c1.274-5.248,2.999-9.222,5.248-11.995C17.543,23.69,17.393,24.14,17.318,24.665L17.318,24.665z"/>
	<path d="M111.48,90.639h-5.698c0.076,0.974,0.076,1.873,0,2.848c0,0.076,0.076,1.574,0.149,4.423
		c-0.073,3.373-0.674,6.447-1.648,9.221c-3.073,8.771-9.896,13.195-20.467,13.195c-12.369,0-21.216-4.049-26.689-12.07
		c-3.299-4.798-4.948-9.821-4.948-14.994c0-0.824,0-1.574,0.076-2.324c1.724,0.076,3.748,0.15,6.071,0.15
		c2.55,0,5.099-0.15,7.723-0.449H46.631c0,0.074,0,0.074,0,0.074c-0.074,0.975-0.074,1.949-0.074,2.924
		c0,6.073,1.649,11.771,4.948,17.243c1.424,2.399,3.148,4.573,5.098,6.448c-16.418,1.724-27.89,10.645-34.486,26.913
		c-3.673,9.072-5.548,19.567-5.548,31.638c0,0.075,0.3,1.875,0.975,5.398h4.948c-0.225-1.875-0.3-3.6-0.3-5.173
		c0-5.323,0.375-9.747,1.125-13.269c1.424-5.323,2.774-10.646,4.048-15.969c1.199-5.398,3.973-10.271,8.321-14.619
		c2.324-2.399,8.622-4.948,18.893-7.647c3.674-0.975,6.672-1.799,8.921-2.475c4.199,2.174,9.146,3.449,14.844,3.975
		c-0.975,4.872-2.324,15.443-4.048,31.711c-0.674,4.124-2.324,11.995-4.798,23.466h6.822c2.174-10.871,4.424-27.215,6.598-48.881
		c0.226-2.549,0.15-4.573-0.225-6.073c0.375,0,0.75,0,1.125,0c1.875,0,3.748-0.074,5.473-0.299c-0.75,3.524-1.274,9.446-1.5,17.842
		c-0.226,7.272-0.226,14.845,0,22.642c0,0.075,0,4.947,0,14.469c0,0.075,0,0.225,0,0.301h6.447
		c-0.524-9.521-0.825-17.469-0.825-23.841c0.676-9.671,1.125-16.943,1.274-21.892c0.151-4.798-0.074-8.322-0.749-10.496
		c3.224-0.974,6.072-2.398,8.472-4.423c1.499,0.6,3.449,1.35,5.922,2.324c7.424,2.924,13.494,5.922,18.217,8.997
		c6.149,3.973,11.997,9.071,17.47,15.293c4.497,5.098,12.894,15.144,25.266,30.063c0.524,0,0.973,0,1.348-0.074
		c1.875,1.199,5.25,2.474,10.122,3.898c0.149,0.075,0.299,0.075,0.448,0.15h17.845c-1.576-0.975-3.524-2.1-5.848-3.225
		c-8.323-4.123-15.369-6.297-21.144-6.372c-1.122-2.324-3.296-5.473-6.372-9.521c-5.021-6.522-10.869-13.044-17.692-19.717
		c-16.869-16.343-30.738-25.04-41.607-26.09c1.125-1.574,2.024-3.374,2.774-5.397c1.497-3.898,2.247-9.672,2.247-17.318
		C111.48,92.662,111.48,91.612,111.48,90.639L111.48,90.639z"/>
	<path d="M120.776,154.737c0.226-2.174,0.375-3.448,0.375-3.898c0.674-3.599-0.226-5.397-2.848-5.397
		c-0.677,0-1.726,3.523-3.226,10.646c-0.226,0.375-0.299,0.825-0.299,1.35c-1.049,5.098-2.323,11.845-3.75,20.241
		c-0.223,1.2-0.375,2.399-0.598,3.6h6.521c1.274-8.472,2.25-15.145,2.924-20.018c0.899,0.675,1.948,1.35,3.073,2.174
		c6.674,4.724,12.369,9.222,16.942,13.42c0.826,0.75,2.25,2.25,4.198,4.424h8.848C137.646,165.308,126.923,156.462,120.776,154.737
		L120.776,154.737z"/>
	<path d="M43.558,165.683c-0.975,6.522-1.5,11.62-1.5,15.444v0.15h5.624c0-5.173,0.749-10.571,2.248-16.044
		c1.5-5.548,2.25-8.621,2.25-9.222c0.6-3.073-0.299-4.573-2.699-4.573C47.006,151.438,45.057,156.162,43.558,165.683L43.558,165.683
		z"/>
	<path d="M94.912,192.598c-0.226-3.973-0.449-7.798-0.675-11.32H87.79c0.225,4.497,0.6,7.946,1.125,10.271
		c-0.975,0.674-2.549,2.098-4.723,4.348c-3.073,3.073-4.798,4.647-5.248,4.647c-1.274,0-2.624-1.274-4.048-3.897
		c-0.676-1.274-1.425-2.174-2.1-2.85c1.125-2.699,2.324-6.897,3.523-12.52h-6.822c-0.824,3.674-1.724,7.646-2.698,12.07
		c0,0.674,0,1.349,0.075,1.873c-0.075,0.151-0.075,0.301-0.075,0.526c0,0.073,0,0.149,0.075,0.224c0,0.225,0,0.524,0.074,0.75
		c0.226,0.075,0.375,0.149,0.6,0.225c0.75,1.05,2.174,2.849,4.198,5.397c3.374,4.273,5.549,6.448,6.448,6.448
		c8.171-6.973,12.819-11.471,14.094-13.57C94.013,194.997,94.912,194.172,94.912,192.598L94.912,192.598z"/>
	<path d="M80.067,224.76c2.774-5.174,4.124-7.947,4.124-8.472c0-0.074,0-0.074,0-0.15c0.525-0.225,0.75-0.524,0.75-1.049
		c0.225-1.274-1.05-1.875-3.974-1.875c-2.999,0-5.923,1.5-8.847,4.498c-0.899,0.975-1.649,1.801-2.174,2.549
		c0.149-0.524,0.225-1.123,0.225-1.799c-0.15-5.172-2.998-7.797-8.472-7.797c-2.323,0-4.198,0.226-5.622,0.675
		c-0.825-2.099-2.024-5.099-3.524-8.997c-3.223-8.321-4.873-15.367-4.873-20.991c0-0.074,0-0.074,0-0.074h-5.624
		c0.151,0.824,1.275,6.973,3.299,18.293c2.774,12.145,5.698,18.217,8.847,18.217c0.225,0,0.45,0,0.674,0c0.225,0,0.524,0,0.825,0
		c1.274,0,3.897-0.299,7.872-0.825c0.149,0.75,0.299,1.274,0.375,1.575c0,0.074-0.076,0.75-0.151,2.024
		c-0.599,0.149-0.974,0.449-1.123,0.899c-0.451-0.226-1.051-0.301-1.725-0.301c-2.474,0-4.274,2.1-5.548,6.298
		c-0.899,2.849-1.349,5.473-1.349,7.872c0,2.625,1.274,7.047,3.748,13.12c0,1.274-0.074,1.499-0.225,0.825l-3.523,0.299
		c-1.425,0-2.25-1.35-2.549-4.048c-0.226-2.474-0.975-3.824-2.25-4.049c-0.45-0.524-1.125-0.824-2.024-0.824
		c-2.174,0.974-3.899,1.424-5.173,1.424c-1.199,0-1.649-1.35-1.274-4.048c0-0.15,0-0.3,0.076-0.375
		c0.075-0.226,0.075-0.525,0.075-0.824c0-0.524-0.075-0.899-0.225-1.274c-0.375-1.125-1.125-1.649-2.399-1.649
		c-1.725-0.375-2.624-1.5-2.624-3.299c1.5-2.325,2.25-3.823,2.25-4.499c0.525-2.248-0.375-3.373-2.549-3.448
		c-1.574-3.674-3.224-7.647-4.798-11.919c-0.525-1.426-1.125-2.924-1.649-4.424c-3.523-9.896-5.698-18.219-6.447-25.04h-4.948
		c0.675,4.123,1.874,10.72,3.449,19.791c0.524,2.325,1.124,4.573,1.649,6.598c1.274,4.798,2.549,8.697,3.823,11.621
		c1.724,3.897,3.522,6.146,5.323,6.672c-0.076,0.075-0.151,0.225-0.226,0.375c-0.975,2.1-1.5,3.673-1.5,4.648
		c0,0.074,0.225,1.574,0.75,4.348c0.75,2.024,2.024,3.375,3.748,3.899c0,0.074,0.375,1.498,1.2,4.272
		c0.824,1.725,2.099,2.999,3.674,3.674c-1.575,3.523-3.448,11.771-5.548,24.74h6.747c2.174-11.621,3.299-18.967,3.299-22.191
		c0.149-0.75,0.225-1.425,0.149-1.949c0.75-0.075,1.425-0.149,2.024-0.299c0.149,0.823,0.375,1.948,0.75,3.372
		c1.574,2.924,4.648,4.424,9.222,4.424c3.522,0,5.772-0.899,6.747-2.698c0.375-0.676,0.6-2.024,0.6-3.975
		c0-2.324-0.6-4.948-1.8-7.872c0.375,0.151,0.825,0.301,1.35,0.375c0,0.075,0,0.226,0,0.375c0.075,0.225,0.299,0.45,0.524,0.6
		c0.076,1.274,0.451,3.974,0.975,8.172c1.049,5.923,2.324,8.923,3.897,8.923c2.774,0,4.573-2.774,5.398-8.398
		c0.15-2.323,0.3-4.348,0.449-6.071c0.226-3.073,0.375-5.249,0.601-6.372c0.524-3.375,2.174-7.573,4.798-12.597
		C79.768,225.36,79.918,225.06,80.067,224.76L80.067,224.76z M71.896,223.26c0.75-0.899,1.725-2.174,2.924-3.898
		c1.499-1.425,3.148-2.324,5.023-2.699c-2.325,2.851-4.649,8.922-6.973,18.144c-1.725,6.821-3.149,13.945-4.423,21.366l-0.225-0.075
		c-0.074-0.375-0.375-3.674-0.899-9.821c-0.226-2.924-0.675-4.798-1.274-5.697c0.075-0.226,0.149-0.525,0.149-0.899
		c0-0.074,0-0.074,0-0.074c0.45-1.426,0.976-3.45,1.649-5.999c2.624-5.397,3.974-8.62,3.974-9.671
		C71.896,223.711,71.896,223.485,71.896,223.26L71.896,223.26z M64.174,224.084c0-0.449-0.074-0.824-0.149-1.199l0.75,0.451
		c1.125,0.599,2.249,0.974,3.298,1.198c-0.75,1.5-1.574,3.599-2.473,6.299c-0.9,2.772-1.575,4.946-2.024,6.671
		c-0.899-0.448-1.95-0.674-3.074-0.674c-0.075,0-0.225,0-0.3,0c-0.375-0.976-0.525-1.649-0.525-2.1
		C62.676,227.684,64.174,224.159,64.174,224.084L64.174,224.084z"/>
	<path d="M87.04,214.488c0,0.824,0.075,1.274,0.15,1.425c0.824,0.749,2.923,1.124,6.372,1.124c6.447,0,11.021-0.6,13.644-1.725
		c-0.073,1.575,0,3.299,0.076,5.023c0,0.15,0.226,2.774,0.75,7.872c0.375,2.625,0.823,4.647,1.348,5.924
		c0.375,1.123,0.902,1.647,1.427,1.647c0.75,0,1.348-0.224,1.872-0.748c0.527-0.601,0.826-1.5,0.976-2.7c0-0.074,0-1.799,0-5.098
		c-0.226-6.598-0.601-11.695-1.125-15.218c1.576-2.024,2.698-5.624,3.226-10.646c0.375-9.747,0.674-15.894,0.899-18.442
		c0.073-0.524,0.223-1.125,0.299-1.649h-6.521c-2.549,14.693-4.049,23.989-4.5,27.888C93.338,209.241,87.04,210.965,87.04,214.488
		L87.04,214.488z"/>
	<path d="M88.39,271.916c-1.125-5.848-2.698-8.997-4.798-9.447c-0.375-1.049-1.35-1.574-2.774-1.574
		c-2.248,0-4.198,3.674-5.848,11.021H88.39L88.39,271.916z"/>
	<path d="M88.39,271.916H74.97c-1.649,7.271-2.998,18.217-4.048,32.836c-0.375,4.424-0.75,13.57-1.2,27.439
		c-1.274,11.695-4.273,17.543-9.146,17.543c-2.25,0-3.449,0-3.524,0.076c-0.899,0.224-1.424,0.823-1.499,1.948
		c-2.249,0.449-5.248,1.125-8.996,1.949c-8.396,1.874-16.119,2.773-23.091,2.773c-4.724,0-7.348-0.225-8.022-0.75v-1.499
		c1.799-0.974,4.723-2.174,8.697-3.448c1.949-0.601,3.074-1.425,3.298-2.55h0.151c1.349,0,2.698-6.222,4.047-18.592
		c2.024-19.043,3.149-29.089,3.299-30.138c2.325-10.945,4.273-20.168,5.698-27.589h-6.747c-0.975,6.073-2.099,13.269-3.224,21.516
		c-2.174,16.119-4.124,32.462-5.848,48.882c0,1.049,0,2.022,0.074,2.848c-0.824-0.225-1.799-0.299-2.924-0.299
		c-4.573,0-7.946,1.349-10.046,4.122c-1.424,1.8-2.099,3.748-2.099,5.924c0,0.074-0.149,0.448-0.375,1.274
		c-0.149,0.974,0.075,1.799,0.6,2.623c1.649,2.475,6.223,3.674,13.795,3.674c8.696,0,17.618-1.125,26.839-3.373
		c5.098-1.274,8.697-2.399,10.721-3.375c8.397-0.225,13.045-3.223,13.944-8.996c0.301-1.799,0.225-4.198-0.15-7.122
		c-0.45-2.924-0.6-4.723-0.524-5.248c0.524-3.523,0.975-11.171,1.5-22.939c0.074-2.476,1.424-10.046,3.897-22.866
		c0.525-2.625,0.976-5.098,1.426-7.348c3.973,33.287,7.122,54.203,9.37,62.675c-0.074,0.375-0.074,0.824-0.074,1.424
		c0,0.75,0.3,1.5,0.899,2.175c2.324,2.624,6.297,3.749,11.995,3.523c3.074-0.149,6.821-0.6,11.245-1.274
		c9.973,0,17.394-1.125,22.342-3.448c3.747-1.725,5.622-3.823,5.622-6.148c0-1.424-0.448-2.924-1.274-4.348
		c-1.799-2.924-4.948-4.424-9.445-4.424c-0.524,0-0.976,0-1.351,0.075c-3.674-30.213-6.896-50.08-9.671-59.525h-6.223
		c0.524,4.647,2.476,14.918,5.848,30.888c0.75,3.373,1.424,10.271,2.024,20.541c0.823,8.622,2.625,12.896,5.247,12.896
		c0.149,0,0.302,0,0.524,0c0.527,0.375,1.201,0.75,2.101,1.049c2.924,1.125,4.948,2.101,5.997,3
		c-1.723,1.049-3.372,1.799-4.872,2.248c-2.549,0.825-8.174,1.2-16.869,1.2c-4.646,0-11.17-0.301-19.642-0.976
		c-3.224-19.266-4.873-32.162-4.873-38.833C90.414,289.459,89.739,278.813,88.39,271.916L88.39,271.916z"/>
	<path d="M198.744,186.601c-1.198,0.75-2.323,1.349-3.299,1.873c-1.573-1.199-3.372-1.799-5.546-1.799
		c-2.625,0-3.899,1.049-3.899,3.073c0,0.75,1.351,2.024,4.125,3.749c2.771,1.799,4.122,3.524,4.122,5.098
		c0,0.675-0.226,1.199-0.75,1.574c-0.073,0.075-0.226,0.225-0.299,0.375c-1.726-3.748-3.973-5.623-6.674-5.623
		c-2.323,0-3.521,0.899-3.521,2.699c5.021,7.271,7.497,11.32,7.497,12.295c0,0.75-0.226,1.199-0.75,1.425
		c-4.649-7.272-9.073-11.245-13.345-11.846c-0.375-1.049-1.274-1.573-2.625-1.573c-1.799,0-3.823,1.948-5.997,5.922
		c-2.625,4.798-4.049,7.271-4.274,7.497l-0.375-0.375v-5.623c2.476-4.423,3.75-7.572,3.75-9.371
		c0.524-2.699-0.677-4.049-3.601-4.049c-0.073,0-0.223,0-0.299,0.075c-3.524-3.898-6.896-7.497-10.046-10.72h-8.848
		c1.726,1.873,3.826,4.198,6.375,7.122c4.421,4.723,7.646,7.421,9.82,8.171c-0.299,0.826-0.601,1.726-0.899,2.774
		c-1.274,4.272-1.875,7.196-1.875,8.622c0,0.074,0,1.649,0,4.647c0.674,2.924,2.698,4.423,6.146,4.423
		c2.399,0,5.25-2.249,8.473-6.822c1.274-1.724,2.25-3.299,3-4.573c9.97,7.572,14.994,11.396,15.144,11.396
		c3.073,0,5.021-0.899,5.698-2.624c0.073-0.3,0.149-1.574,0.149-3.823c-0.451-2.474-0.976-4.573-1.5-6.446
		c0.451,0.074,0.976,0.149,1.649,0.149c2.924,0,4.348-1.5,4.348-4.573c-0.375-2.698-1.049-5.023-1.875-6.896
		c4.274-0.601,6.375-2.551,6.375-5.848c0-1.426-2.024-3.299-6.073-5.698h-17.845C191.622,184.201,197.47,186,198.744,186.601
		L198.744,186.601z"/>
	<path d="M114.779,269.816c0,0.524,0.073,1.2,0.149,2.1h6.223c-0.674-2.325-1.351-4.049-1.948-5.098
		c-0.601-0.976-1.125-1.426-1.649-1.426c-0.302,0-0.601,0.075-0.899,0.151C115.38,265.919,114.779,267.343,114.779,269.816
		L114.779,269.816z"/>
	<path d="M71.222,49.029c-0.975,0-1.5,0.45-1.5,1.35c0,0.15,0.9,1.5,2.699,4.049c2.024,2.924,3.524,5.473,4.423,7.497
		c0.525,1.125,1.424,3.448,2.774,7.047c1.274,3.073,2.399,4.648,3.224,4.648c1.125,0,1.725-0.6,1.725-1.725
		C78.418,56.677,73.996,49.029,71.222,49.029L71.222,49.029z"/>
	<path d="M62.975,50.154c-1.275,0-1.875,0.524-1.875,1.574c0,0.375,2.698,4.648,8.021,12.895c0.524,0.975,1.5,3.598,2.85,7.722
		c1.424,3.598,2.849,5.397,4.123,5.397c0.899,0,1.35-0.824,1.35-2.399C70.172,58.551,65.374,50.154,62.975,50.154L62.975,50.154z"/>
	<path d="M9.971,211.715c1.125-1.8,1.799-4.573,1.875-8.321c0-0.524,0-1.051,0-1.575c0.974-3.373-0.375-5.098-3.974-5.098
		c-5.248,0-7.872,3.374-7.872,10.195c0,0.075,0.15,1.274,0.375,3.674c0.675,2.399,2.324,3.6,4.873,3.6
		C7.272,214.189,8.847,213.363,9.971,211.715L9.971,211.715z M8.996,200.845c0.15,0.224,0.15,0.75,0,1.498
		c0.15,5.923-1.199,8.847-4.048,8.847c-1.425,0-2.099-1.424-2.099-4.198c-0.076-1.124,0.075-2.323,0.375-3.448
		c0.675-2.174,1.799-3.299,3.524-3.299C8.097,200.244,8.847,200.47,8.996,200.845L8.996,200.845z"/>
	
		<line fill="none" stroke="#000000" stroke-width="0.9996" stroke-linecap="round" stroke-linejoin="round" stroke-miterlimit="10" x1="175.805" y1="274.69" x2="79.844" y2="237.205"/>
	
		<path fill="none" stroke="#000000" stroke-width="1.9992" stroke-linecap="round" stroke-linejoin="round" stroke-miterlimit="10" d="
		M9.971,211.715l16.494,7.572 M79.618,225.733l29.762,8.398 M116.654,265.544L74.22,244.702 M22.642,207.666l-10.796-4.272
		 M119.203,266.818l58.852,28.863l27.363-6.372l-11.619-31.488l-81.12-22.79"/>
</g>
</svg>
